HIERARCHY
ROOT Hips
{
	OFFSET -26.824600 50.099693 -149.439941
	CHANNELS 6 Xposition Yposition Zposition Zrotation Yrotation Xrotation
	JOINT LeftUpLeg
	{
		OFFSET 10.145000 0.000000 0.000000
		CHANNELS 3 Zrotation Yrotation Xrotation
		JOINT LeftLeg
		{
			OFFSET 0.000000 -42.917400 -0.000061
			CHANNELS 3 Zrotation Yrotation Xrotation
			JOINT LeftFoot
			{
				OFFSET 0.000000 -42.250599 0.000000
				CHANNELS 3 Zrotation Yrotation Xrotation
				JOINT LeftToe
				{
					OFFSET 0.000000 -4.392151 17.201004
					CHANNELS 3 Zrotation Yrotation Xrotation
					End Site
					{
						OFFSET 0.000000 0.099998 0.000000
					}
				}
			}
		}
	}
	JOINT RightUpLeg
	{
		OFFSET -10.145000 0.000000 0.000000
		CHANNELS 3 Zrotation Yrotation Xrotation
		JOINT RightLeg
		{
			OFFSET 0.000000 -42.917400 -0.000061
			CHANNELS 3 Zrotation Yrotation Xrotation
			JOINT RightFoot
			{
				OFFSET 0.000000 -42.250599 0.000000
				CHANNELS 3 Zrotation Yrotation Xrotation
				JOINT RightToe
				{
					OFFSET 0.000000 -4.392151 17.201004
					CHANNELS 3 Zrotation Yrotation Xrotation
					End Site
					{
						OFFSET 0.000000 0.099998 0.000000
					}
				}
			}
		}
	}
	JOINT Spine
	{
		OFFSET 0.000000 10.318600 -2.509537
		CHANNELS 3 Zrotation Yrotation Xrotation
		JOINT Spine1
		{
			OFFSET 0.000000 9.934231 0.000000
			CHANNELS 3 Zrotation Yrotation Xrotation
			JOINT Spine2
			{
				OFFSET 0.000000 9.934227 0.000000
				CHANNELS 3 Zrotation Yrotation Xrotation
				JOINT Neck
				{
					OFFSET -0.335104 22.641098 1.787384
					CHANNELS 3 Zrotation Yrotation Xrotation
					JOINT Head
					{
						OFFSET 0.234144 15.519096 0.301941
						CHANNELS 3 Zrotation Yrotation Xrotation
						End Site
						{
							OFFSET 0.000000 0.099998 0.000000
						}
					}
				}
				JOINT LeftShoulder
				{
					OFFSET -0.147516 18.715599 8.700119
					CHANNELS 3 Zrotation Yrotation Xrotation
					JOINT LeftArm
					{
						OFFSET 0.000000 20.301498 0.000000
						CHANNELS 3 Zrotation Yrotation Xrotation
						JOINT LeftForeArm
						{
							OFFSET 0.000000 27.875137 0.000061
							CHANNELS 3 Zrotation Yrotation Xrotation
							JOINT LeftHand
							{
								OFFSET 0.000000 24.367203 0.000000
								CHANNELS 3 Zrotation Yrotation Xrotation
								End Site
								{
									OFFSET 0.000000 0.100006 0.000000
								}
							}
						}
					}
				}
				JOINT RightShoulder
				{
					OFFSET -0.147516 18.715599 8.700119
					CHANNELS 3 Zrotation Yrotation Xrotation
					JOINT RightArm
					{
						OFFSET 0.000000 20.301498 0.000000
						CHANNELS 3 Zrotation Yrotation Xrotation
						JOINT RightForeArm
						{
							OFFSET 0.000000 27.875137 0.000061
							CHANNELS 3 Zrotation Yrotation Xrotation
							JOINT RightHand
							{
								OFFSET 0.000000 24.367203 0.000000
								CHANNELS 3 Zrotation Yrotation Xrotation
								End Site
								{
									OFFSET 0.000000 0.100006 0.000000
								}
							}
						}
					}
				}
			}
		}
	}
}
MOTION
Frames: 16
Frame Time: 0.033333
24.889500 90.220000 -21.231000 2.276229 -3.326950 -5.514814 1.251180 8.385532 9.379705 0.000000 -0.000000 5.358500 -5.137118 8.107756 -17.542895 0.000000 -0.000000 22.575533 -7.902116 -4.564091 6.396743 0.000000 -0.000000 10.193322 6.888904 5.466495 -16.651003 0.000000 -0.000000 12.885652 -1.975757 0.200448 0.211451 0.179860 0.075101 4.200154 0.807210 1.448837 4.408715 -1.042080 0.772177 5.965844 -4.159516 0.062867 -6.360884 -79.559594 5.523358 -19.717650 -55.009096 -4.194237 10.628987 3.855431 13.165993 16.482041 5.402618 0.000000 2.407366 79.124369 -8.499376 -25.902605 42.061065 -7.557661 20.656757 2.855117 10.619861 15.142484 -6.840502 -0.000001 -8.588857
24.888200 90.219500 -21.229900 2.276738 -3.325103 -5.514663 1.251948 8.384942 9.378872 0.000000 -0.000000 5.361550 -5.145160 8.103116 -17.548037 0.000000 -0.000000 22.581113 -7.902037 -4.564441 6.397672 0.000000 -0.000000 10.194077 6.890829 5.467425 -16.655604 0.000000 -0.000000 12.873016 -1.974306 0.199390 0.212814 0.180118 0.075101 4.199797 0.806702 1.450099 4.405445 -1.040186 0.771681 5.973510 -4.163226 0.063582 -6.338232 -79.557333 5.521923 -19.716862 -55.009601 -4.196870 10.622104 3.862545 13.190344 16.482547 5.410359 0.000000 2.415200 79.125893 -8.497077 -25.901481 42.063537 -7.576816 20.656650 2.854650 10.615230 15.146362 -6.828797 -0.000002 -8.577906
24.885700 90.218900 -21.228300 2.275100 -3.322440 -5.515693 1.256119 8.382040 9.379674 0.000000 -0.000000 5.363933 -5.150832 8.099353 -17.549749 0.000000 -0.000000 22.587689 -7.899195 -4.568939 6.401171 0.000000 -0.000000 10.193613 6.879098 5.466751 -16.655261 0.000000 -0.000000 12.883123 -1.970658 0.200246 0.214310 0.180680 0.075013 4.200203 0.806516 1.451198 4.403788 -1.038928 0.770790 5.986934 -4.165895 0.063579 -6.323364 -79.552629 5.521454 -19.715996 -55.004543 -4.172864 10.618359 3.858643 13.174622 16.485018 5.377093 0.000000 2.395349 79.131084 -8.494988 -25.906681 42.063577 -7.580515 20.656322 2.859036 10.619498 15.162841 -6.779881 0.000003 -8.577789
24.885100 90.219300 -21.228000 2.275463 -3.319403 -5.512572 1.258114 8.396742 9.374209 0.000000 -0.000000 5.369377 -5.142795 8.088814 -17.548962 0.000000 -0.000000 22.594335 -7.899402 -4.567840 6.398387 0.000000 -0.000000 10.195009 6.889459 5.464778 -16.657513 0.000000 -0.000000 12.884531 -1.969437 0.200379 0.212409 0.181473 0.074672 4.200310 0.808332 1.449925 4.403560 -1.042115 0.772641 5.992120 -4.167082 0.060285 -6.303543 -79.553236 5.520668 -19.716691 -55.002403 -4.169207 10.615174 3.855920 13.169778 16.479611 5.359036 0.000000 2.399607 79.132973 -8.493802 -25.906164 42.060197 -7.598565 20.654723 2.861702 10.619265 15.176675 -6.781602 0.000001 -8.582020
24.885000 90.219400 -21.226500 2.278945 -3.313576 -5.514760 1.254226 8.399131 9.376016 0.000000 -0.000000 5.370448 -5.133230 8.085581 -17.545133 0.000000 -0.000000 22.581113 -7.903576 -4.569176 6.402608 0.000000 -0.000000 10.195535 6.887737 5.462777 -16.659190 0.000000 -0.000000 12.885359 -1.968951 0.200390 0.215095 0.182303 0.074294 4.201354 0.809009 1.446844 4.403175 -1.049631 0.772557 5.985538 -4.163462 0.068455 -6.274432 -79.554122 5.519708 -19.717824 -55.007703 -4.186905 10.615562 3.857267 13.186278 16.465890 5.347895 -0.000000 2.404102 79.131096 -8.493090 -25.907807 42.075475 -7.584104 20.659498 2.859520 10.618895 15.166113 -6.780031 -0.000002 -8.572147
24.884700 90.219100 -21.224700 2.282996 -3.310087 -5.516691 1.250893 8.393049 9.379769 0.000000 -0.000000 5.368071 -5.135669 8.083366 -17.544160 0.000000 -0.000000 22.583473 -7.907418 -4.570753 6.408070 0.000000 -0.000000 10.192213 6.895018 5.459105 -16.658572 0.000000 -0.000000 12.883009 -1.970838 0.199730 0.215584 0.182022 0.074347 4.201924 0.809706 1.444425 4.403534 -1.056658 0.768290 6.002954 -4.152307 0.073779 -6.273224 -79.548881 5.520767 -19.717261 -55.008991 -4.183817 10.614324 3.850642 13.177253 16.449544 5.344018 -0.000000 2.397848 79.126514 -8.491781 -25.897388 42.078866 -7.598595 20.653992 2.864554 10.645044 15.156436 -6.811247 -0.000000 -8.571702
24.883900 90.217900 -21.224800 2.280379 -3.308922 -5.511247 1.254539 8.388577 9.374248 0.000000 -0.000000 5.367771 -5.141625 8.078226 -17.551148 0.000000 -0.000000 22.587323 -7.904128 -4.573357 6.400243 0.000000 -0.000000 10.196987 6.895781 5.465059 -16.662614 0.000000 -0.000000 12.871310 -1.965563 0.199769 0.213725 0.182977 0.074110 4.201315 0.810896 1.445852 4.402494 -1.050562 0.770375 5.997304 -4.160586 0.073149 -6.250733 -79.547034 5.521184 -19.718582 -55.008022 -4.173414 10.615273 3.847896 13.176710 16.439010 5.343633 0.000000 2.393724 79.126048 -8.490580 -25.899403 42.077528 -7.596681 20.658924 2.850801 10.605967 15.139293 -6.802416 -0.000001 -8.561095
24.882800 90.217000 -21.223300 2.275925 -3.304745 -5.507779 1.260685 8.387903 9.374636 0.000000 -0.000000 5.359932 -5.146272 8.068333 -17.548341 0.000000 -0.000000 22.574043 -7.898873 -4.578645 6.399528 0.000000 -0.000000 10.197743 6.878591 5.456801 -16.669860 0.000000 -0.000000 12.877774 -1.954761 0.198986 0.211929 0.182410 0.074137 4.201394 0.809800 1.448872 4.403252 -1.051805 0.774246 5.994778 -4.159297 0.075082 -6.236577 -79.544435 5.519878 -19.715905 -55.003861 -4.156569 10.614586 3.846830 13.178001 16.433217 5.350815 -0.000000 2.384617 79.127202 -8.490744 -25.904264 42.069173 -7.602351 20.663643 2.844862 10.590303 15.130240 -6.796935 -0.000001 -8.570817
24.882300 90.217400 -21.223100 2.276215 -3.303202 -5.504492 1.259183 8.386622 9.372070 0.000000 -0.000000 5.359462 -5.148017 8.071397 -17.549628 0.000000 -0.000000 22.582912 -7.898210 -4.572833 6.396183 0.000000 -0.000000 10.198675 6.890710 5.457487 -16.667030 0.000000 -0.000000 12.870431 -1.951900 0.198397 0.214594 0.183433 0.074093 4.200599 0.811871 1.451141 4.399809 -1.052081 0.774848 5.991571 -4.156857 0.083681 -6.223843 -79.546893 5.519837 -19.718073 -55.001259 -4.150023 10.610644 3.849458 13.181661 16.439626 5.367714 0.000000 2.384480 79.127993 -8.487982 -25.901161 42.064196 -7.589383 20.654442 2.843191 10.582538 15.132202 -6.786650 -0.000000 -8.575696
24.881600 90.217400 -21.222300 2.277238 -3.300980 -5.497899 1.259152 8.389973 9.368379 0.000000 -0.000000 5.353356 -5.141219 8.065837 -17.547621 0.000000 -0.000000 22.595573 -7.896587 -4.568895 6.393360 0.000000 -0.000000 10.192915 6.893891 5.446847 -16.668023 0.000000 -0.000000 12.875895 -1.948943 0.198862 0.211504 0.183588 0.074069 4.199818 0.811893 1.451618 4.400551 -1.048495 0.777113 5.990637 -4.157092 0.088387 -6.222225 -79.547043 5.521823 -19.718033 -55.001439 -4.158736 10.604795 3.850081 13.174534 16.450409 5.380292 -0.000000 2.382321 79.126592 -8.492896 -25.903378 42.067657 -7.572294 20.657833 2.846871 10.600159 15.127159 -6.792351 0.000000 -8.570718
24.882500 90.218900 -21.220800 2.284145 -3.295849 -5.494573 1.248816 8.386378 9.365157 0.000000 -0.000000 5.353978 -5.154329 8.071740 -17.542666 0.000000 -0.000000 22.578752 -7.904494 -4.573871 6.393188 0.000000 -0.000000 10.188781 6.893168 5.444681 -16.666826 0.000000 -0.000000 12.888295 -1.951414 0.197684 0.207867 0.183345 0.073772 4.198240 0.812593 1.448988 4.408427 -1.054189 0.779060 5.999299 -4.146740 0.082452 -6.234983 -79.553080 5.525121 -19.722110 -54.992155 -4.151105 10.607271 3.850816 13.172296 16.455974 5.390811 0.000000 2.374465 79.124599 -8.497639 -25.900881 42.081779 -7.535510 20.662049 2.845236 10.600047 15.119006 -6.812235 0.000000 -8.568686
24.883700 90.218800 -21.219600 2.290417 -3.293265 -5.491382 1.241763 8.390041 9.364828 0.000000 -0.000000 5.347855 -5.151045 8.071849 -17.534609 0.000000 -0.000000 22.574914 -7.912691 -4.582335 6.392861 0.000000 -0.000000 10.186099 6.890263 5.450303 -16.668309 0.000000 -0.000000 12.879481 -1.953707 0.198321 0.208930 0.183873 0.073463 4.198638 0.813410 1.445314 4.405224 -1.053372 0.777033 6.003525 -4.148261 0.074189 -6.239801 -79.559893 5.528883 -19.727369 -54.982850 -4.154729 10.610293 3.851981 13.176102 16.456286 5.386711 0.000000 2.375805 79.119653 -8.505030 -25.897227 42.081692 -7.527903 20.667204 2.844967 10.602784 15.113971 -6.821976 -0.000001 -8.584154
24.883300 90.218400 -21.220000 2.288319 -3.290018 -5.486493 1.245492 8.392592 9.361023 0.000000 -0.000000 5.344994 -5.149636 8.062566 -17.534317 0.000000 -0.000000 22.570320 -7.909427 -4.578700 6.387544 0.000000 -0.000000 10.189244 6.900138 5.449255 -16.667553 0.000000 -0.000000 12.874660 -1.947098 0.196466 0.211732 0.184607 0.073132 4.199940 0.813325 1.449998 4.403939 -1.053162 0.777034 6.004497 -4.145393 0.057575 -6.246521 -79.562606 5.527623 -19.728494 -54.980164 -4.148857 10.613831 3.854987 13.182988 16.460483 5.402110 -0.000000 2.373298 79.123610 -8.501126 -25.898728 42.065149 -7.528191 20.664760 2.843555 10.596023 15.115918 -6.810500 -0.000001 -8.592104
24.882700 90.218300 -21.220600 2.287684 -3.283623 -5.477637 1.245595 8.387381 9.350899 0.000000 -0.000000 5.345329 -5.153516 8.057335 -17.533964 0.000000 -0.000000 22.566470 -7.906025 -4.581408 6.378433 0.000000 -0.000000 10.191692 6.892021 5.442114 -16.673904 0.000000 -0.000000 12.876010 -1.943600 0.195485 0.208145 0.185379 0.072949 4.200596 0.814589 1.450441 4.407149 -1.055571 0.776253 6.012555 -4.144741 0.042909 -6.261955 -79.564165 5.530247 -19.727231 -54.984988 -4.166530 10.621257 3.859500 13.197661 16.461764 5.399013 0.000000 2.375504 79.126778 -8.504968 -25.897594 42.060417 -7.516087 20.665932 2.837455 10.572514 15.116539 -6.815241 -0.000002 -8.599852
24.881100 90.216600 -21.221000 2.286753 -3.276054 -5.471426 1.247512 8.381533 9.344576 0.000000 -0.000000 5.343049 -5.156585 8.049703 -17.538781 0.000000 -0.000000 22.579131 -7.904703 -4.589171 6.373663 0.000000 -0.000000 10.193322 6.890566 5.443107 -16.678450 0.000000 -0.000000 12.875717 -1.939957 0.194891 0.206620 0.185643 0.073144 4.200054 0.814158 1.449629 4.410727 -1.037844 0.771571 6.017632 -4.165594 0.040704 -6.263384 -79.560234 5.535623 -19.719772 -54.998412 -4.188811 10.620828 3.867066 13.212054 16.475656 5.400023 0.000000 2.363118 79.129737 -8.509370 -25.893721 42.058772 -7.512784 20.662899 2.836924 10.566587 15.121843 -6.833064 0.000001 -8.606878
24.880000 90.217500 -21.221300 2.285631 -3.270964 -5.463768 1.249692 8.388783 9.337638 0.000000 -0.000000 5.340392 -5.144093 8.041883 -17.532585 0.000000 -0.000000 22.584160 -7.901305 -4.592549 6.366287 0.000000 -0.000000 10.194774 6.881938 5.436069 -16.677460 0.000000 -0.000000 12.867317 -1.936586 0.195228 0.204644 0.186266 0.073011 4.201366 0.814484 1.449411 4.414781 -1.050126 0.771420 6.028575 -4.148792 0.051884 -6.279788 -79.562216 5.541787 -19.717525 -55.000753 -4.180848 10.625957 3.874384 13.228890 16.485725 5.403429 -0.000000 2.371588 79.136402 -8.516613 -25.895960 42.052132 -7.520436 20.678003 2.833549 10.567238 15.103750 -6.842133 0.000001 -8.595967
